{"title":"Helmut Kautner - Ludwig II [1955]","uid":5327629,"size":1508353705,"categoryP":"video","categoryS":"movies","magnet":"?xt=urn:btih:99dbd0b00e96f7aff6d2a7321d96b54232ed94c3&amp;dn=Helmut+Kautner+-+Ludwig+II+%5B1955%5D&amp;tr=udp%3A%2F%2Ftracker.openbittorrent.com%3A80&amp;tr=udp%3A%2F%2Fopen.demonii.com%3A1337&amp;tr=udp%3A%2F%2Ftracker.coppersurfer.tk%3A6969&amp;tr=udp%3A%2F%2Fexodus.desync.com%3A6969","seeders":3,"leechers":0,"uploader":"mfccorrea","files":6,"time":1265066521,"description":"O. W. Fischer stars as Ludwig II, the &quot;mad king&quot; of Bavaria. The film downplays some of Ludwig's most outrageous eccentricities, concentrating instead on his fascination with the Arts. The King's particular favorite in this realm is composer Richard Wagner, played by Paul Bildt. Ludwig's obsession with Wagner bordered on the psychotic, a fact that the film only slightly modifies. Ruth Leuwerik costars as Kaiserin Elizabeth, the wife of Austrian emperor Franz Joseph, with whom Ludwig carried on an ill-advised affair. Also appearing is Friedrich Domin as the great German political leader Bismarck, the man who set the stage for Ludwig's ultimate downfall. Ludwig II was filmed on location in and around the Mad King's opulent castle, which now stands as a popular tourist attraction. \n\n   General\n      Complete name : Ludwig II.avi\n      Format : AVI\n      Format/Info : Audio Video Interleave\n      File size : 1.36 GiB\n      Duration : 1h 49mn\n      Overall bit rate : 1 774 Kbps\n      Writing application : FairUse Wizard - http://fairusewizard.com\n      Writing library : The best and REALLY easy backup tool\n   Video #0\n      ID : 0\n      Format : MPEG-4 Visual\n      Format profile : AdvancedSimple@L5\n      Format settings, BVOP : Yes\n      Format settings, QPel : No\n      Format settings, GMC : No warppoints\n      Format settings, Matrix : Default (MPEG)\n      Muxing mode : Packed bitstream\n      Codec ID : XVID\n      Codec ID/Hint : XviD\n      Duration : 1h 49mn\n      Bit rate : 1 573 Kbps\n      Width : 688 pixels\n      Height : 496 pixels\n      Display aspect ratio : 1.387\n      Frame rate : 25.000 fps\n      Resolution : 24 bits\n      Colorimetry : 4:2:0\n      Scan type : Progressive\n      Bits/(Pixel*Frame) : 0.184\n      Stream size : 1.21 GiB (89%)\n      Writing library : XviD 1.2.0.dev47 (UTC 2006-11-01)\n   Audio #1\n      ID : 1\n      Format : AC-3\n      Format/Info : Audio Coding 3\n      Codec ID : 2000\n      Duration : 1h 49mn\n      Bit rate mode : Constant\n      Bit rate : 192 Kbps\n      Channel(s) : 2 channels\n      Channel positions : L R\n      Sampling rate : 48.0 KHz\n      Stream size : 151 MiB (11%)\n      Alignment : Split accross interleaves\n      Interleave, duration : 40 ms (1.00 video frame)\n      Interleave, preload duration : 500 ms\n\nIMDB: tt0047195\n\nGerman audio; English, Spanish and Portuguese srt subtitles, multilanguage (eng; fr; ger; esp; port; ita; arab; rus; jap) subpack\n\nHelmut Kautner - Ludwig II [1955]","torrent":{"xt":"urn:btih:99dbd0b00e96f7aff6d2a7321d96b54232ed94c3","amp;dn":"Helmut+Kautner+-+Ludwig+II+%5B1955%5D","amp;tr":["udp%3A%2F%2Ftracker.openbittorrent.com%3A80","udp%3A%2F%2Fopen.demonii.com%3A1337","udp%3A%2F%2Ftracker.coppersurfer.tk%3A6969","udp%3A%2F%2Fexodus.desync.com%3A6969"],"infoHash":"99dbd0b00e96f7aff6d2a7321d96b54232ed94c3","infoHashBuffer":{"type":"Buffer","data":[153,219,208,176,14,150,247,175,246,210,167,50,29,150,181,66,50,237,148,195]},"announce":[],"urlList":[]}}